<svg width="128" height="128" viewBox="0 0 128 128" fill="none" xmlns="http://www.w3.org/2000/svg">
<path fill-rule="evenodd" clip-rule="evenodd" d="M79 54.0044V64.0044H89V54.0044H79ZM39 54.0044V64.0044H49V54.0044H39ZM39 94.0044H59V104.004H39V94.0044ZM89 94.0044V104.004H69V94.0044H89ZM89 34.0044V24.0044H99V34.0044H89ZM39 34.0044H49V44.0044H79V34.0044H89V44.0044H99V54.0044H109V64.0044H119V94.0044H109V74.0044H99V94.0044H89V84.0044H39V94.0044H29V74.0044H19V94.0044H9V64.0044H19V54.0044H29V44.0044H39V34.0044ZM29 24.0044H39V34.0044H29V24.0044Z" fill="white"/>
</svg>
